<svg width="96" height="97" viewBox="0 0 96 97" fill="none" xmlns="http://www.w3.org/2000/svg">
<g clip-path="url(#clip0_602_214)">
<path d="M47.9993 96.7551C74.5089 96.7551 95.9993 75.2648 95.9993 48.7551C95.9993 22.2455 74.5089 0.755127 47.9993 0.755127C21.4896 0.755127 -0.000732422 22.2455 -0.000732422 48.7551C-0.000732422 75.2648 21.4896 96.7551 47.9993 96.7551Z" fill="#FFEBD5"/>
<rect y="1" width="96" height="96" rx="48" fill="#FFEBD5"/>
<path d="M62.9912 29.002C62.7285 29.0018 62.4684 29.0534 62.2257 29.1539C61.9829 29.2543 61.7624 29.4017 61.5767 29.5874C61.3909 29.7732 61.2436 29.9937 61.1431 30.2364C61.0427 30.4791 60.9911 30.7393 60.9912 31.002V32.2754C59.3044 34.3668 57.1725 36.0558 54.7507 37.2194C52.3289 38.383 49.6781 38.992 46.9912 39.002H34.9912C33.4004 39.0037 31.8753 39.6364 30.7505 40.7612C29.6256 41.8861 28.9929 43.4112 28.9912 45.002V49.002C28.9929 50.5927 29.6256 52.1178 30.7505 53.2427C31.8753 54.3675 33.4004 55.0002 34.9912 55.002H35.9588L31.1533 66.2148C31.0227 66.5189 30.9697 66.8507 30.999 67.1803C31.0283 67.51 31.1391 67.8272 31.3213 68.1036C31.5035 68.3799 31.7514 68.6066 32.0429 68.7634C32.3344 68.9202 32.6602 69.0022 32.9912 69.002H40.9912C41.3827 69.0022 41.7657 68.8873 42.0924 68.6717C42.4192 68.4561 42.6754 68.1491 42.8291 67.7891L48.2766 55.078C50.7379 55.2587 53.136 55.942 55.3229 57.0858C57.5097 58.2296 59.4389 59.8095 60.9912 61.7281V63.002C60.9912 63.5324 61.2019 64.0411 61.577 64.4162C61.9521 64.7912 62.4608 65.002 62.9912 65.002C63.5216 65.002 64.0304 64.7912 64.4054 64.4162C64.7805 64.0411 64.9912 63.5324 64.9912 63.002V31.002C64.9914 30.7393 64.9397 30.4791 64.8393 30.2364C64.7388 29.9937 64.5915 29.7731 64.4058 29.5874C64.22 29.4017 63.9995 29.2543 63.7568 29.1539C63.514 29.0534 63.2539 29.0018 62.9912 29.002ZM34.9912 51.002C34.4609 51.0016 33.9524 50.7908 33.5774 50.4158C33.2024 50.0408 32.9916 49.5323 32.9912 49.002V45.002C32.9916 44.4716 33.2024 43.9631 33.5774 43.5881C33.9524 43.2131 34.4609 43.0023 34.9912 43.002H36.9912V51.002H34.9912ZM39.6729 65.002H36.0244L40.3096 55.002H43.958L39.6729 65.002ZM60.9912 56.0456C57.0477 52.7968 52.1005 51.0145 46.9912 51.0019H40.9912V43.0019H46.9912C52.1006 42.9888 57.0478 41.2062 60.9912 37.9572V56.0456Z" fill="#F6B059"/>
</g>
<defs>
<clipPath id="clip0_602_214">
<rect width="96" height="97" fill="white"/>
</clipPath>
</defs>
</svg>
